<svg width="22" height="22" viewBox="0 0 22 22" fill="none" xmlns="http://www.w3.org/2000/svg">
<path d="M19.9914 21.2547C19.9878 21.1595 19.9359 21.0209 19.8761 20.9467L3.12086 0.165258C3.06101 0.0910508 2.93532 0.0166719 2.84148 0L2.12257 0.253645C2.06001 0.325531 2.00879 0.462301 2.00879 0.557648V21.263C2.00879 21.3583 2.04067 21.5075 2.0796 21.5945L2.41429 21.9292C2.50125 21.9682 2.6504 22 2.74575 22H19.3726C19.4679 22 19.6084 21.9534 19.6848 21.8964L19.9914 21.2547ZM4.55159 18.9818C4.55159 19.0771 4.5412 19.1768 4.52848 19.2033C4.51576 19.2298 4.37091 19.2515 4.27561 19.2515H2.84041C2.7451 19.2515 2.644 19.2417 2.61577 19.2298C2.58754 19.2179 2.56442 19.0771 2.56442 18.9818V18.9111C2.56442 18.8158 2.57482 18.7161 2.58754 18.6896C2.60025 18.6631 2.74506 18.6414 2.84041 18.6414H4.27561C4.37091 18.6414 4.47197 18.6511 4.50025 18.6631C4.52848 18.675 4.55159 18.8158 4.55159 18.9111V18.9818ZM4.55159 15.9819C4.55159 16.0772 4.5412 16.1769 4.52848 16.2034C4.51576 16.2299 4.37091 16.2516 4.27561 16.2516H2.84041C2.7451 16.2516 2.644 16.2418 2.61577 16.2299C2.58754 16.218 2.56442 16.0772 2.56442 15.9819V15.9112C2.56442 15.8159 2.57482 15.7162 2.58754 15.6897C2.60025 15.6632 2.74506 15.6415 2.84041 15.6415H4.27561C4.37091 15.6415 4.47197 15.6513 4.50025 15.6632C4.52848 15.6751 4.55159 15.8159 4.55159 15.9112V15.9819ZM4.55159 12.9819C4.55159 13.0772 4.5412 13.1769 4.52848 13.2034C4.51576 13.2299 4.37091 13.2516 4.27561 13.2516H2.84041C2.7451 13.2516 2.644 13.2419 2.61577 13.2299C2.58754 13.218 2.56442 13.0772 2.56442 12.9819V12.9113C2.56442 12.8159 2.57482 12.7163 2.58754 12.6897C2.60025 12.6632 2.74506 12.6415 2.84041 12.6415H4.27561C4.37091 12.6415 4.47197 12.6513 4.50025 12.6632C4.52848 12.6752 4.55159 12.8159 4.55159 12.9113V12.9819ZM4.55159 9.98207C4.55159 10.0774 4.5412 10.1771 4.52848 10.2036C4.51576 10.2301 4.37091 10.2518 4.27561 10.2518H2.84041C2.7451 10.2518 2.644 10.242 2.61577 10.2301C2.58754 10.2181 2.56442 10.0774 2.56442 9.98207V9.91139C2.56442 9.81608 2.57482 9.71639 2.58754 9.68988C2.60025 9.66337 2.74506 9.64167 2.84041 9.64167H4.27561C4.37091 9.64167 4.47197 9.65147 4.50025 9.66337C4.52848 9.67532 4.55159 9.81608 4.55159 9.91139V9.98207ZM4.55159 6.98212C4.55159 7.07743 4.5412 7.17711 4.52848 7.20362C4.51576 7.23014 4.37091 7.25184 4.27561 7.25184H2.84041C2.7451 7.25184 2.644 7.24208 2.61577 7.23014C2.58754 7.21819 2.56442 7.07743 2.56442 6.98212V6.91148C2.56442 6.81618 2.57482 6.71649 2.58754 6.68998C2.60025 6.66347 2.74506 6.64177 2.84041 6.64177H4.27561C4.37091 6.64177 4.47197 6.65152 4.50025 6.66342C4.52848 6.67537 4.55159 6.81618 4.55159 6.91148V6.98212ZM11.55 17.5439C11.4736 17.6009 11.3331 17.6475 11.2377 17.6475H7.57268C7.47738 17.6475 7.32823 17.6156 7.24122 17.5767L7.06522 17.4007C7.02629 17.3137 6.99441 17.1645 6.99441 17.0692V12.4401C6.99441 12.3448 7.04563 12.2081 7.10823 12.1362L7.54407 11.9824C7.63791 11.999 7.76364 12.0734 7.82345 12.1475L11.6175 16.8534C11.6774 16.9276 11.7293 17.0662 11.7329 17.1615L11.55 17.5439Z" fill="#E14767"/>
</svg>
