<svg width="21" height="21" viewBox="0 0 21 21" fill="none" xmlns="http://www.w3.org/2000/svg">
<path fill-rule="evenodd" clip-rule="evenodd" d="M15.9002 0.875C16.3643 0.875 16.8094 1.05937 17.1376 1.38757L19.6124 3.86243C19.9406 4.19063 20.125 4.63574 20.125 5.09988V17.5C20.125 18.9498 18.9498 20.125 17.5 20.125H3.5C2.05026 20.125 0.875 18.9498 0.875 17.5V3.5C0.875 2.05026 2.05026 0.875 3.5 0.875H15.9002ZM3.5 2.625C3.01676 2.625 2.625 3.01676 2.625 3.5V17.5C2.625 17.9833 3.01676 18.375 3.5 18.375H4.375V13.125C4.375 11.6752 5.55026 10.5 7 10.5H14C15.4498 10.5 16.625 11.6752 16.625 13.125V18.375H17.5C17.9833 18.375 18.375 17.9833 18.375 17.5V5.97488C18.375 5.51074 18.1906 5.06563 17.8624 4.73743L16.2626 3.13757C15.9344 2.80937 15.4893 2.625 15.0252 2.625H14.875V4.375C14.875 5.82474 13.6998 7 12.25 7H8.75C7.30026 7 6.125 5.82474 6.125 4.375V2.625H3.5ZM14.875 18.375V13.125C14.875 12.6417 14.4833 12.25 14 12.25H7C6.51676 12.25 6.125 12.6417 6.125 13.125V18.375H14.875ZM7.875 2.625H13.125V4.375C13.125 4.85824 12.7333 5.25 12.25 5.25H8.75C8.26676 5.25 7.875 4.85824 7.875 4.375V2.625Z" fill="#9E9E9E"/>
</svg>
