<svg width="20" height="20" viewBox="0 0 20 20" fill="none" xmlns="http://www.w3.org/2000/svg">
<path d="M16.0608 0C14.7628 0 13.66 0.848789 13.2766 2.02023L1.91924 2.02145C1.41725 2.02152 1.01025 2.42848 1.01025 2.93055V19.0909C1.01025 19.593 1.41729 20 1.91936 20H16.0608C17.676 20 18.9901 18.6859 18.9901 17.0707V2.92926C18.9901 1.31406 17.676 0 16.0608 0ZM2.82838 18.1818V3.83957L13.1314 3.83844V6.06121H5.96002C5.45795 6.06121 5.05092 6.46824 5.05092 6.97031V15.0505C5.05092 15.5526 5.45795 15.9596 5.96002 15.9596H13.1314V17.0707C13.1314 17.4639 13.2098 17.8389 13.3509 18.1818H2.82838V18.1818ZM10.9092 10.1014V7.87945H13.1311V10.1014H10.9092ZM13.1311 11.9196V14.1414H10.9092V11.9196H13.1311ZM6.86912 10.1014V7.87945H9.09107V10.1014H6.86912ZM9.09107 11.9196V14.1414H6.86912V11.9196H9.09107ZM16.0608 18.1818C15.4481 18.1818 14.9496 17.6834 14.9496 17.0707C14.9496 16.458 15.4481 15.9595 16.0608 15.9595C16.6734 15.9595 17.1719 16.458 17.1719 17.0707C17.1719 17.6834 16.6734 18.1818 16.0608 18.1818ZM17.1719 14.3609C16.829 14.2197 16.4539 14.1413 16.0608 14.1413C15.6676 14.1413 15.2925 14.2198 14.9496 14.3609V2.92926C14.9496 2.3166 15.4481 1.81816 16.0608 1.81816C16.6734 1.81816 17.1719 2.3166 17.1719 2.92926V14.3609Z" fill="#0084FF"/>
</svg>
