<svg width="22" height="22" viewBox="0 0 22 22" fill="none" xmlns="http://www.w3.org/2000/svg">
<path d="M10.0837 3.66667L9.62538 2.75L9.16705 3.66667L8.25038 3.78125L9.01488 4.43025L8.70872 5.5L9.62538 4.8895L10.542 5.5L10.2359 4.43025L11.0004 3.78125L10.0837 3.66667ZM17.7232 13.4438L16.9587 11.9167L16.1942 13.4438L14.6671 13.6354L15.9403 14.718L15.4316 16.5L16.9587 15.4816L18.4859 16.5L17.9771 14.718L19.2504 13.6354L17.7232 13.4438ZM6.1118 5.80525L5.50038 4.58333L4.88897 5.80525L3.66705 5.95833L4.68547 6.82367L4.27847 8.25L5.50038 7.43508L6.7223 8.25L6.3153 6.82367L7.33372 5.95833L6.1118 5.80525ZM3.12988 15.5833C3.12988 16.0728 3.32055 16.533 3.66705 16.8795L5.12088 18.3333C5.46738 18.6798 5.92755 18.8705 6.41705 18.8705C6.90655 18.8705 7.36672 18.6798 7.71322 18.3333L18.3337 7.71283C18.6802 7.36633 18.8709 6.90617 18.8709 6.41667C18.8709 5.92717 18.6802 5.467 18.3337 5.1205L16.8799 3.66667C16.1869 2.97367 14.9806 2.97367 14.2876 3.66667L3.66705 14.2872C3.32055 14.6337 3.12988 15.0938 3.12988 15.5833ZM15.5837 4.96283L17.0376 6.41667L13.7504 9.70383L12.2965 8.25L15.5837 4.96283Z" fill="white"/>
</svg>
