<svg width="29" height="29" viewBox="0 0 29 29" fill="none" xmlns="http://www.w3.org/2000/svg">
<path fill-rule="evenodd" clip-rule="evenodd" d="M7.53612 2.41759C8.20301 2.44233 8.72357 3.003 8.69884 3.66989L8.58063 6.85717C10.2156 5.5892 12.2691 4.83343 14.4997 4.83343C19.8385 4.83343 24.1663 9.16135 24.1663 14.5001C24.1663 19.8389 19.8385 24.1667 14.4997 24.1667C9.16092 24.1667 4.83301 19.8389 4.83301 14.5001C4.83301 13.8327 5.374 13.2917 6.04134 13.2917C6.70868 13.2917 7.24967 13.8327 7.24967 14.5001C7.24967 18.5041 10.4956 21.7501 14.4997 21.7501C18.5037 21.7501 21.7497 18.5041 21.7497 14.5001C21.7497 10.496 18.5037 7.25009 14.4997 7.25009C12.5912 7.25009 10.8543 7.98709 9.55878 9.19418L13.6733 9.67493C14.3361 9.75238 14.8106 10.3525 14.7331 11.0153C14.6557 11.6782 14.0556 12.1528 13.3927 12.0753L7.10945 11.3411C6.48345 11.268 6.01882 10.726 6.04217 10.0961L6.28384 3.58031C6.30858 2.91342 6.86924 2.39286 7.53612 2.41759Z" fill="#E14767"/>
</svg>
