<svg width="34" height="34" viewBox="0 0 34 34" fill="none" xmlns="http://www.w3.org/2000/svg">
<g clip-path="url(#clip0_30_124)">
<path d="M26.4573 15.0353L24.6813 14.6985L25.3549 11.1463C26.0989 7.22298 23.5212 3.43879 19.5979 2.69475C15.6745 1.95071 11.8903 4.52842 11.1463 8.45178L10.4726 12.0039L8.69656 11.6671C7.71484 11.4809 6.76984 12.1246 6.58366 13.1064L3.8891 27.315C3.70293 28.2967 4.34663 29.2417 5.32836 29.4279L23.0891 32.7961C24.0709 32.9823 25.0159 32.3386 25.202 31.3568L27.8966 17.1482C28.0828 16.1665 27.4391 15.2215 26.4573 15.0353ZM15.556 24.0077C14.5743 23.8215 13.9306 22.8765 14.1168 21.8948C14.3029 20.9131 15.2479 20.2693 16.2297 20.4555C17.2114 20.6417 17.8551 21.5867 17.6689 22.5684C17.4827 23.5501 16.5378 24.1939 15.556 24.0077ZM21.1291 14.0249L14.0248 12.6776L14.6984 9.12542C15.0705 7.16374 16.9626 5.87489 18.9242 6.2469C20.8859 6.61892 22.1748 8.51102 21.8027 10.4727L21.1291 14.0249Z" fill="#DCBE53"/>
</g>
<defs>
<clipPath id="clip0_30_124">
<rect width="28.9237" height="28.9237" fill="white" transform="translate(5.38916) rotate(10.7382)"/>
</clipPath>
</defs>
</svg>
